# Wavefront textured cube

v -1 -1 -1
v -1 -1  1
v -1  1 -1
v -1  1  1
v  1 -1 -1
v  1 -1  1
v  1  1 -1
v  1  1  1

vn -1 -1 -1
vn -1 -1  1
vn -1  1 -1
vn -1  1  1
vn  1 -1 -1
vn  1 -1  1
vn  1  1 -1
vn  1  1  1

vt 0 0
vt 0 1
vt 1 1
vt 1 0
vt 0 0
vt 0 1
vt 1 1
vt 1 0

mtllib cube.mtl

g front
  usemtl brick
  f 5/1/5 7/2/7 8/3/8 6/4/6

g right
  usemtl brick
  f 7/2/7 3/1/3 4/4/4 8/3/8

g back
  usemtl brick
  f 3/1/3 1/2/1 2/3/2 4/4/4

g left
  usemtl brick
  f 1/2/1 5/1/5 6/4/6 2/3/2

g top
  usemtl tree1
  f 6/5/6 8/6/8 4/7/4 2/8/2

g bottom
  usemtl tree2
  f 1/5/1 3/6/3 7/7/7 5/8/5

